<mxfile host="app.diagrams.net" agent="Mozilla/5.0 (Windows NT 10.0; Win64; x64; rv:132.0) Gecko/20100101 Firefox/132.0" version="24.8.4">
  <diagram name="Página-1" id="Awogp0Ij0tS_mM7VMMrQ">
    <mxGraphModel grid="1" page="1" gridSize="10" guides="1" tooltips="1" connect="1" arrows="1" fold="1" pageScale="1" pageWidth="827" pageHeight="1169" math="0" shadow="0">
      <root>
        <mxCell id="0" />
        <mxCell id="1" parent="0" />
        <mxCell id="ww3PKQKoKpqhbmBqik-8-2" value="" style="html=1;outlineConnect=0;whiteSpace=wrap;fillColor=#dae8fc;shape=mxgraph.archimate3.application;appType=node;archiType=square;strokeColor=#FFFFFF;" vertex="1" parent="1">
          <mxGeometry x="339" y="100" width="211" height="170" as="geometry" />
        </mxCell>
        <mxCell id="ww3PKQKoKpqhbmBqik-8-3" value="&lt;div&gt;«component»&lt;/div&gt;&lt;div&gt;&lt;b&gt;Frontend&lt;/b&gt;&lt;/div&gt;" style="html=1;dropTarget=0;whiteSpace=wrap;fillColor=#dae8fc;strokeColor=#FFFFFF;" vertex="1" parent="1">
          <mxGeometry x="360" y="170" width="180" height="90" as="geometry" />
        </mxCell>
        <mxCell id="ww3PKQKoKpqhbmBqik-8-4" value="" style="shape=module;jettyWidth=8;jettyHeight=4;" vertex="1" parent="ww3PKQKoKpqhbmBqik-8-3">
          <mxGeometry x="1" width="20" height="20" relative="1" as="geometry">
            <mxPoint x="-27" y="7" as="offset" />
          </mxGeometry>
        </mxCell>
        <mxCell id="ww3PKQKoKpqhbmBqik-8-5" value="&lt;div&gt;&amp;lt;&amp;lt;device&amp;gt;&amp;gt;&lt;/div&gt;&lt;div&gt;EndHost&lt;br&gt;&lt;/div&gt;" style="text;html=1;align=center;verticalAlign=middle;whiteSpace=wrap;rounded=0;" vertex="1" parent="1">
          <mxGeometry x="414.5" y="120" width="60" height="30" as="geometry" />
        </mxCell>
        <mxCell id="ww3PKQKoKpqhbmBqik-8-6" value="" style="html=1;outlineConnect=0;whiteSpace=wrap;fillColor=#dae8fc;shape=mxgraph.archimate3.application;appType=node;archiType=square;strokeColor=#FFFFFF;" vertex="1" parent="1">
          <mxGeometry x="220" y="360" width="211" height="310" as="geometry" />
        </mxCell>
        <mxCell id="ww3PKQKoKpqhbmBqik-8-7" value="&lt;div&gt;&amp;lt;&amp;lt;device&amp;gt;&amp;gt;&lt;/div&gt;&lt;div&gt;Backend Server&lt;br&gt;&lt;/div&gt;" style="text;html=1;align=center;verticalAlign=middle;whiteSpace=wrap;rounded=0;" vertex="1" parent="1">
          <mxGeometry x="282.5" y="370" width="86" height="30" as="geometry" />
        </mxCell>
        <mxCell id="ww3PKQKoKpqhbmBqik-8-8" value="&lt;div&gt;«component&lt;b&gt;»&lt;/b&gt;&lt;/div&gt;&lt;div&gt;&lt;b&gt;Backoffice&lt;br&gt;&lt;/b&gt;&lt;/div&gt;" style="html=1;dropTarget=0;whiteSpace=wrap;fillColor=#dae8fc;strokeColor=#FFFFFF;" vertex="1" parent="1">
          <mxGeometry x="236" y="430" width="180" height="90" as="geometry" />
        </mxCell>
        <mxCell id="ww3PKQKoKpqhbmBqik-8-9" value="" style="shape=module;jettyWidth=8;jettyHeight=4;" vertex="1" parent="ww3PKQKoKpqhbmBqik-8-8">
          <mxGeometry x="1" width="20" height="20" relative="1" as="geometry">
            <mxPoint x="-27" y="7" as="offset" />
          </mxGeometry>
        </mxCell>
        <mxCell id="ww3PKQKoKpqhbmBqik-8-10" value="&lt;div&gt;«component»&lt;/div&gt;&lt;div&gt;&lt;b&gt;Scheduling&lt;/b&gt;&lt;/div&gt;" style="html=1;dropTarget=0;whiteSpace=wrap;fillColor=#dae8fc;strokeColor=#FFFFFF;" vertex="1" parent="1">
          <mxGeometry x="236" y="560" width="180" height="90" as="geometry" />
        </mxCell>
        <mxCell id="ww3PKQKoKpqhbmBqik-8-11" value="" style="shape=module;jettyWidth=8;jettyHeight=4;" vertex="1" parent="ww3PKQKoKpqhbmBqik-8-10">
          <mxGeometry x="1" width="20" height="20" relative="1" as="geometry">
            <mxPoint x="-27" y="7" as="offset" />
          </mxGeometry>
        </mxCell>
        <mxCell id="ww3PKQKoKpqhbmBqik-8-12" value="" style="endArrow=none;html=1;rounded=0;entryX=0.5;entryY=1;entryDx=0;entryDy=0;entryPerimeter=0;exitX=0.75;exitY=0;exitDx=0;exitDy=0;exitPerimeter=0;" edge="1" parent="1" source="ww3PKQKoKpqhbmBqik-8-6" target="ww3PKQKoKpqhbmBqik-8-2">
          <mxGeometry width="50" height="50" relative="1" as="geometry">
            <mxPoint x="430" y="380" as="sourcePoint" />
            <mxPoint x="480" y="330" as="targetPoint" />
            <Array as="points">
              <mxPoint x="400" y="320" />
            </Array>
          </mxGeometry>
        </mxCell>
        <mxCell id="ww3PKQKoKpqhbmBqik-8-13" value="http/s" style="text;html=1;align=center;verticalAlign=middle;whiteSpace=wrap;rounded=0;" vertex="1" parent="1">
          <mxGeometry x="384" y="320" width="60" height="30" as="geometry" />
        </mxCell>
        <mxCell id="lRlDv6jvG8RDoUoGaWFO-1" value="" style="html=1;outlineConnect=0;whiteSpace=wrap;fillColor=#dae8fc;shape=mxgraph.archimate3.application;appType=node;archiType=square;strokeColor=#FFFFFF;" vertex="1" parent="1">
          <mxGeometry x="460" y="360" width="211" height="310" as="geometry" />
        </mxCell>
        <mxCell id="lRlDv6jvG8RDoUoGaWFO-2" value="&lt;div&gt;&amp;lt;&amp;lt;device&amp;gt;&amp;gt;&lt;/div&gt;&lt;div&gt;Frontend Server&lt;/div&gt;" style="text;html=1;align=center;verticalAlign=middle;whiteSpace=wrap;rounded=0;" vertex="1" parent="1">
          <mxGeometry x="522.5" y="370" width="86" height="30" as="geometry" />
        </mxCell>
        <mxCell id="lRlDv6jvG8RDoUoGaWFO-3" value="&lt;div&gt;«component&lt;b&gt;»&lt;/b&gt;&lt;/div&gt;&lt;div&gt;&lt;b&gt;HTTP Server&lt;br&gt;&lt;/b&gt;&lt;/div&gt;" style="html=1;dropTarget=0;whiteSpace=wrap;fillColor=#dae8fc;strokeColor=#FFFFFF;" vertex="1" parent="1">
          <mxGeometry x="476" y="430" width="180" height="90" as="geometry" />
        </mxCell>
        <mxCell id="lRlDv6jvG8RDoUoGaWFO-4" value="" style="shape=module;jettyWidth=8;jettyHeight=4;" vertex="1" parent="lRlDv6jvG8RDoUoGaWFO-3">
          <mxGeometry x="1" width="20" height="20" relative="1" as="geometry">
            <mxPoint x="-27" y="7" as="offset" />
          </mxGeometry>
        </mxCell>
        <mxCell id="lRlDv6jvG8RDoUoGaWFO-7" value="" style="endArrow=none;html=1;rounded=0;exitX=0.25;exitY=0;exitDx=0;exitDy=0;exitPerimeter=0;" edge="1" parent="1" source="lRlDv6jvG8RDoUoGaWFO-1" target="ww3PKQKoKpqhbmBqik-8-2">
          <mxGeometry width="50" height="50" relative="1" as="geometry">
            <mxPoint x="510" y="360" as="sourcePoint" />
            <mxPoint x="560" y="310" as="targetPoint" />
            <Array as="points">
              <mxPoint x="513" y="330" />
            </Array>
          </mxGeometry>
        </mxCell>
        <mxCell id="lRlDv6jvG8RDoUoGaWFO-8" value="http/s" style="text;html=1;align=center;verticalAlign=middle;whiteSpace=wrap;rounded=0;" vertex="1" parent="1">
          <mxGeometry x="500" y="300" width="60" height="30" as="geometry" />
        </mxCell>
        <mxCell id="zi72oU7NfyJQ3CK7Hfex-3" value="The Frontend server contains the logic that will be displayed in the&amp;nbsp; browser" style="shape=callout;whiteSpace=wrap;html=1;perimeter=calloutPerimeter;" vertex="1" parent="1">
          <mxGeometry x="570" y="250" width="160" height="110" as="geometry" />
        </mxCell>
      </root>
    </mxGraphModel>
  </diagram>
</mxfile>
